<?xml version="1.0" encoding="utf-8"?>
<!-- Generator: Adobe Illustrator 25.0.0, SVG Export Plug-In . SVG Version: 6.00 Build 0)  -->
<svg version="1.1" id="Capa_1" xmlns="http://www.w3.org/2000/svg" xmlns:xlink="http://www.w3.org/1999/xlink" x="0px" y="0px"
	 viewBox="0 0 512 512" style="enable-background:new 0 0 512 512;" xml:space="preserve">
<style type="text/css">
	.st0{fill:#CE1B28;}
</style>
<g>
	<path class="st0" d="M196.6,148h54.1c9.5-19.7-4.9-43-27-43C201.5,105,187.1,128.2,196.6,148z"/>
	<path class="st0" d="M223.6,75c38.2,0,66.9,35.4,58.6,73h76.4v-33c0-5.5-4.5-10-10-10h-20.2c-2.3-8.1-5.5-15.7-9.5-22.9l14.3-14.3
		c3.9-3.9,3.9-10.2,0-14.1L305,25.4c-3.9-3.9-10.2-3.9-14.1,0l-14.3,14.3c-7.2-4-14.8-7.2-22.9-9.5V10c0-5.5-4.5-10-10-10h-40
		c-5.5,0-10,4.5-10,10v20.2c-8.1,2.3-15.7,5.5-22.9,9.5l-14.3-14.3c-3.9-3.9-10.2-3.9-14.1,0L114,53.7c-3.9,3.9-3.9,10.2,0,14.1
		l14.3,14.3c-4,7.2-7.2,14.8-9.5,22.9H98.6c-5.5,0-10,4.5-10,10v33h76.5C156.7,110.4,185.5,75,223.6,75L223.6,75z"/>
	<path class="st0" d="M474,317.7l-58.9-88c-1-17.8-4.6-35.1-10.7-51.6H46.4c-33.8,91.7,12.4,197.5,109,231.8V497c0,8.3,6.7,15,15,15
		h171c8.3,0,15-6.7,15-15v-77h44c8.3,0,15-6.7,15-15v-64h46.1C473.5,341,480.7,327.6,474,317.7z"/>
</g>
</svg>
