<?xml version="1.0" encoding="utf-8"?>
<!-- Generator: Adobe Illustrator 25.0.0, SVG Export Plug-In . SVG Version: 6.00 Build 0)  -->
<svg version="1.1" id="Capa_1" xmlns="http://www.w3.org/2000/svg" xmlns:xlink="http://www.w3.org/1999/xlink" x="0px" y="0px"
	 viewBox="0 0 512 512" style="enable-background:new 0 0 512 512;" xml:space="preserve">
<style type="text/css">
	.st0{fill:#CE1B28;}
</style>
<g>
	<g>
		<path class="st0" d="M466.8,242.8V86.2c0-2.3-0.6-4.5-1.6-6.5c0.6-1.6,1.6-3,1.6-4.8c0-6.7-4.4-12.6-10.9-14.4l-210-60
			c-2.7-0.8-5.5-0.8-8.2,0l-210,60c-6.4,1.8-10.9,7.7-10.9,14.4s4.4,12.6,10.9,14.4l79.1,22.6v17.8c0,17.1,9.5,32.8,24.1,40
			c67.2,33,154.5,33,221.7,0c14.7-7.2,24.1-22.9,24.1-40V112l60-17.1v147.9c-17.4,6.2-30,22.7-30,42.2v30c0,8.3,6.7,15,15,15h60
			c8.3,0,15-6.7,15-15v-30C496.8,265.5,484.2,249,466.8,242.8z"/>
	</g>
</g>
<g>
	<g>
		<path class="st0" d="M364.3,198.7c-37.7,18.5-80.6,28.3-124.1,28.3s-86.4-9.8-124.1-28.3c-3.7-1.8-6.7-4.5-10-6.9
			c3.2,54,32.3,99.8,73.3,123.3c0,0,21.1,9.9,27.6,11.8l0,0c10.7,3,21.6,5.2,33.1,5.2c10.5,0,25.6-2.1,40.6-7.6
			c6.9-2.5,20.2-9.3,20.2-9.3c41.1-23.5,70.1-69.3,73.4-123.3C371.1,194.2,368,196.9,364.3,198.7z"/>
	</g>
</g>
<g>
	<g>
		<path class="st0" d="M240.2,362c-12.1,0-23.7-1.9-35.1-4.6l35.1,52.6l34.9-52.6C263.8,360.2,252.3,362,240.2,362z"/>
	</g>
</g>
<g>
	<g>
		<path class="st0" d="M326.6,335.1c-0.3,0.2-0.6,0.3-0.8,0.5l-12.6,18.9c0,0.7-57.5,86.7-57.9,87.3V512h195c8.3,0,15-6.7,15-15
			C465.2,415.1,405,347.8,326.6,335.1z M360.2,452h-30c-8.3,0-15-6.7-15-15c0-8.3,6.7-15,15-15h30c8.3,0,15,6.7,15,15
			S368.5,452,360.2,452z"/>
	</g>
</g>
<g>
	<g>
		<path class="st0" d="M154.5,335.4c-0.2-0.2-0.5-0.3-0.8-0.4C75.4,347.8,15.2,415.1,15.2,497c0,8.3,6.7,15,15,15h195v-70.2
			C157.3,339.7,171.1,360.5,154.5,335.4z"/>
	</g>
</g>
</svg>
